# File produced by Open Asset Import Library (http://www.assimp.sf.net)
# (assimp v3.1.206520482)

mtllib PDA.mtl

# 74 vertex positions
v -16 1.78931 1.49017
v -16 1.78931 -1.49017
v 0 1.78931 -1.49017
v 0 1.78931 1.49017
v 16.9996 0 -2.39755
v 21.1259 0 -2.39755
v 21.1259 0 2.39755
v 16.9996 0 2.39755
v -16 7.31878 1.49017
v 0 7.31878 1.49017
v 16.9996 5.87492 2.39755
v 21.1259 5.87492 2.39755
v 16 53.541 1.49017
v 16 30.4299 1.49017
v 19.8837 30.4299 1.49017
v 19.8837 53.541 1.49017
v -16 59.0705 -1.49017
v -16 59.0705 1.49017
v 0 59.0705 1.49017
v 0 59.0705 -1.49017
v 16.9996 60.8598 2.39755
v 21.1259 60.8598 2.39755
v 21.1259 60.8598 -2.39755
v 16.9996 60.8598 -2.39755
v 16 53.541 -1.49017
v 19.8837 53.541 -1.49017
v 19.8837 30.4299 -1.49017
v 16 30.4299 -1.49017
v -16 7.31878 -1.49017
v 4.76837e-07 7.31878 -1.49017
v 16.9996 5.87492 -2.39754
v 21.1259 5.87492 -2.39754
v -19.8837 53.541 1.49017
v -19.8837 53.541 -1.49017
v -19.8837 30.4299 -1.49017
v -19.8837 30.4299 1.49017
v -21.1259 5.87492 2.39755
v -21.1259 5.87492 -2.39754
v -21.1259 0 -2.39755
v -21.1259 0 2.39755
v -21.1259 60.8598 2.39755
v -21.1259 60.8598 -2.39755
v -21.1259 54.9849 -2.39755
v -21.1259 54.9849 2.39754
v 0 53.541 -1.49017
v -16 53.541 -1.49017
v 21.1259 54.9849 -2.39755
v 16.9996 54.9849 -2.39755
v 21.1259 54.9849 2.39754
v 16.9996 54.9849 2.39754
v -16 53.541 1.49017
v 4.76837e-07 53.541 1.49017
v -19.8837 7.31878 -1.49017
v -19.8837 7.31878 1.49017
v 19.8837 7.31878 -1.49017
v 16 7.31878 -1.49017
v 19.8837 7.31878 1.49017
v 16 7.31878 1.49017
v -16 30.4299 1.49017
v -16.9996 0 2.39755
v -16.9996 5.87492 2.39755
v -16.9996 0 -2.39755
v -16.9996 5.87492 -2.39754
v -16 30.4299 -1.49017
v -16.9996 60.8598 -2.39755
v -16.9996 54.9849 -2.39755
v -16.9996 60.8598 2.39755
v -16.9996 54.9849 2.39754
v 16 1.78931 1.49017
v 16 1.78931 -1.49017
v 16 59.0705 -1.49017
v 16 59.0705 1.49017
v 9.53674e-07 30.4299 -1.49017
v 9.53674e-07 30.4299 1.49017

# 138 UV coordinates
vt 0.789887 0.912916 0
vt 0.789887 0.966914 0
vt 0.5 0.966914 0
vt 0.499999 0.912916 0
vt 0.172977 0.983354 0
vt 0.0982167 0.983354 0
vt 0.0982168 0.896476 0
vt 0.172977 0.896476 0
vt 0.596016 0.370782 0
vt 0.596859 0.318943 0
vt 0.746425 0.320179 0
vt 0.746426 0.372012 0
vt 0.908147 0.356146 0
vt 0.908378 0.302674 0
vt 0.94646 0.303181 0
vt 0.945248 0.35661 0
vt 0.896832 0.804563 0
vt 0.896872 0.587661 0
vt 0.93328 0.587661 0
vt 0.933327 0.80399 0
vt 0.210111 0.966914 0
vt 0.210113 0.912916 0
vt 0.5 0.912916 0
vt 0.5 0.966914 0
vt 0.827021 0.896476 0
vt 0.901783 0.896476 0
vt 0.901782 0.983354 0
vt 0.827022 0.983354 0
vt 0.167206 0.806872 0
vt 0.131054 0.806297 0
vt 0.13118 0.592038 0
vt 0.167259 0.592039 0
vt 0.464642 0.377204 0
vt 0.315924 0.377541 0
vt 0.315923 0.326399 0
vt 0.46384 0.325877 0
vt 0.155999 0.362712 0
vt 0.119227 0.363176 0
vt 0.118018 0.310209 0
vt 0.155749 0.309776 0
vt 0.0372384 0.802356 0
vt 0.0368034 0.5 0
vt 0.0760948 0.5 0
vt 0.0756599 0.802356 0
vt 0.0261965 0.1736 0
vt 0.0251766 0.0991404 0
vt 0.0877216 0.0991404 0
vt 0.0867014 0.1736 0
vt 0.0756596 0.802356 0
vt 0.0372393 0.802356 0
vt 0.0368036 0.5 0
vt 0.0760951 0.5 0
vt 0.0867013 0.1736 0
vt 0.0261973 0.1736 0
vt 0.0251771 0.0991406 0
vt 0.0877216 0.0991406 0
vt 0.0877217 0.900859 0
vt 0.0251771 0.900859 0
vt 0.0261974 0.8264 0
vt 0.0867015 0.8264 0
vt 0.46384 0.858199 0
vt 0.315924 0.857677 0
vt 0.315924 0.806535 0
vt 0.464641 0.806872 0
vt 0.155749 0.8743 0
vt 0.118018 0.873868 0
vt 0.119227 0.820901 0
vt 0.155999 0.821365 0
vt 0.0251766 0.90086 0
vt 0.0261967 0.8264 0
vt 0.0867015 0.8264 0
vt 0.0877216 0.90086 0
vt 0.946461 0.872166 0
vt 0.908368 0.872666 0
vt 0.908116 0.819198 0
vt 0.94525 0.818737 0
vt 0.746428 0.855188 0
vt 0.596858 0.856409 0
vt 0.596017 0.80457 0
vt 0.746422 0.803353 0
vt 0.0372389 0.197644 0
vt 0.0756596 0.197644 0
vt 0.131054 0.377779 0
vt 0.167206 0.377204 0
vt 0.0372384 0.197644 0
vt 0.0756595 0.197644 0
vt 0.896832 0.370781 0
vt 0.933314 0.371353 0
vt 0.559538 0.803997 0
vt 0.55957 0.587674 0
vt 0.595979 0.587674 0
vt 0.559538 0.371355 0
vt 0.547602 0.356611 0
vt 0.546391 0.303182 0
vt 0.584472 0.302674 0
vt 0.584704 0.356147 0
vt 0.901783 0.896476 0
vt 0.901783 0.983354 0
vt 0.827022 0.983354 0
vt 0.827022 0.896476 0
vt 0.51262 0.363176 0
vt 0.475847 0.362712 0
vt 0.476098 0.309776 0
vt 0.51383 0.310209 0
vt 0.500667 0.592038 0
vt 0.464588 0.592038 0
vt 0.500793 0.377779 0
vt 0.500794 0.806297 0
vt 0.513829 0.873868 0
vt 0.476098 0.8743 0
vt 0.475848 0.821365 0
vt 0.51262 0.820901 0
vt 0.0982162 0.983354 0
vt 0.0982163 0.896476 0
vt 0.172977 0.896476 0
vt 0.172978 0.983354 0
vt 0.546391 0.872169 0
vt 0.547602 0.81874 0
vt 0.584704 0.819205 0
vt 0.584473 0.872677 0
vt 0.895992 0.318942 0
vt 0.210112 0.966914 0
vt 0.210112 0.912916 0
vt 0.168008 0.325877 0
vt 0.168008 0.858199 0
vt 0.789889 0.912916 0
vt 0.789885 0.966914 0
vt 0.896018 0.856399 0
vt 0.315924 0.592038 0
vt 0.880559 0.76815 0
vt 0.752621 0.76815 0
vt 0.752621 0.583351 0
vt 0.880559 0.583351 0
vt 0.624683 0.76815 0
vt 0.624683 0.583351 0
vt 0.752621 0.398553 0
vt 0.624683 0.398553 0
vt 0.880559 0.398553 0

# 103 vertex normals
vn 0 -1 0
vn 0 -1 0
vn 0 -1.29353e-07 1
vn 0 -1.21747e-07 1
vn 0 3.09486e-08 1
vn 0 1 0
vn 0 1 0
vn 0 -3.09486e-08 -1
vn 0 1.29353e-07 -1
vn 0 1.21747e-07 -1
vn 1 1.50533e-08 0
vn 1 1.50533e-08 0
vn 1 1.50533e-08 0
vn 1 -5.26595e-09 0
vn 1 -5.26595e-09 0
vn -1 0 0
vn -1 0 0
vn 0 1.29353e-07 -1
vn 0 1.21747e-07 -1
vn 1 -5.26595e-09 0
vn 1 -5.26595e-09 0
vn 0 -1.21747e-07 1
vn 0 -1.29353e-07 1
vn 0 -1.29353e-07 1
vn 0 -3.09486e-08 -1
vn 0 3.09486e-08 1
vn 0 -1.21747e-07 1
vn 0 1.21747e-07 -1
vn 0 1.21747e-07 -1
vn 0 -1.21747e-07 1
vn 0 -1.29353e-07 1
vn 0 1.29353e-07 -1
vn 0 1.29353e-07 -1
vn 0 -1.29353e-07 1
vn -0.873008 -0.487705 0
vn -0.873008 -0.487705 0
vn 0 0.532088 0.846689
vn 0 0.532088 0.846689
vn 0 0.532088 0.846689
vn -0.672124 -1.23886e-07 0.740439
vn -0.672124 -1.23886e-07 0.740439
vn -0.672124 -1.23886e-07 0.740439
vn -0.672124 1.23886e-07 -0.740439
vn -0.672123 1.23886e-07 -0.740439
vn -0.672123 1.23886e-07 -0.740439
vn -0.672123 1.23886e-07 -0.740439
vn 0 0.532088 -0.846689
vn 0 0.532088 -0.846689
vn 0.758054 0.652192 0
vn -0.873009 0.487705 0
vn -0.873009 0.487705 0
vn 0 -0.532086 -0.84669
vn 0 -0.532086 -0.84669
vn 0 -0.532086 -0.84669
vn -0.672123 1.23886e-07 -0.740439
vn -0.672123 1.23886e-07 -0.740439
vn -0.672124 1.23886e-07 -0.740439
vn 0.758055 -0.652191 0
vn 0.758055 -0.652191 0
vn -0.672123 -1.23886e-07 0.740439
vn -0.672123 -1.23886e-07 0.740439
vn -0.672123 -1.23886e-07 0.740439
vn 0 -0.532087 0.84669
vn 0 -0.532087 0.84669
vn -0.758054 0.652192 0
vn 0.672125 -1.23886e-07 0.740438
vn 0.672125 -1.23886e-07 0.740438
vn 0.672125 -1.23886e-07 0.740438
vn 0.672124 -1.23886e-07 0.740438
vn 0 0.532088 0.846689
vn 0 0.532088 0.846689
vn 0 0.532088 0.846689
vn 0.873009 -0.487705 0
vn 0.873009 -0.487705 0
vn 0.672124 1.23886e-07 -0.740438
vn 0.672124 1.23886e-07 -0.740438
vn 0.672124 1.23886e-07 -0.740438
vn 0 0.532088 -0.846689
vn 0 0.532088 -0.846689
vn 0 0.532088 -0.846689
vn -0.758055 -0.652191 0
vn -0.758055 -0.652191 0
vn 0.672124 1.23886e-07 -0.740438
vn 0.672124 1.23886e-07 -0.740438
vn 0.672124 1.23886e-07 -0.740438
vn 0.672124 1.23886e-07 -0.740438
vn 0 -0.532087 -0.84669
vn 0 -0.532087 -0.84669
vn 0 -0.532087 -0.84669
vn 0 -0.532087 -0.84669
vn 0.873009 0.487704 0
vn 0.873009 0.487704 0
vn 0 -0.532088 0.846689
vn 0 -0.532088 0.846689
vn 0 -0.532088 0.846689
vn 0.672124 -1.23886e-07 0.740439
vn 0.672124 -1.23886e-07 0.740439
vn 0.672124 -1.23886e-07 0.740439
vn 0.672124 -1.23886e-07 0.740439
vn 0 -3.09486e-08 -1
vn 0 -3.09486e-08 -1
vn 0 3.09486e-08 1
vn 0 3.09486e-08 1

# Mesh 'PDA_obj_PDA_obj' with 144 faces
g PDA_obj_PDA_obj
usemtl PDA_mat
f 1/1/1 2/2/1 3/3/1
f 3/3/1 4/4/1 1/1/1
f 5/5/2 6/6/2 7/7/2
f 7/7/2 8/8/2 5/5/2
f 9/9/3 1/10/3 4/11/3
f 4/11/3 10/12/3 9/9/3
f 11/13/4 8/14/4 7/15/4
f 7/15/4 12/16/4 11/13/4
f 13/17/5 14/18/5 15/19/5
f 15/19/5 16/20/5 13/17/5
f 17/21/6 18/22/6 19/23/6
f 19/23/6 20/24/6 17/21/6
f 21/25/7 22/26/7 23/27/7
f 23/27/7 24/28/7 21/25/7
f 25/29/8 26/30/8 27/31/8
f 27/31/8 28/32/8 25/29/8
f 29/33/9 30/34/9 3/35/9
f 3/35/9 2/36/9 29/33/9
f 31/37/10 32/38/10 6/39/10
f 6/39/10 5/40/10 31/37/10
f 16/41/11 15/42/12 27/43/12
f 27/43/12 26/44/13 16/41/11
f 12/45/14 7/46/15 6/47/14
f 6/47/14 32/48/15 12/45/14
f 33/49/16 34/50/17 35/51/16
f 35/51/16 36/52/16 33/49/16
f 37/53/17 38/54/16 39/55/17
f 39/55/17 40/56/16 37/53/17
f 41/57/16 42/58/16 43/59/16
f 43/59/16 44/60/16 41/57/16
f 17/61/18 20/62/18 45/63/18
f 45/63/18 46/64/18 17/61/18
f 24/65/19 23/66/19 47/67/19
f 47/67/19 48/68/19 24/65/19
f 22/69/20 49/70/21 47/71/20
f 47/71/20 23/72/21 22/69/20
f 22/73/22 21/74/22 50/75/22
f 50/75/22 49/76/22 22/73/22
f 19/77/23 18/78/24 51/79/24
f 51/79/24 52/80/23 19/77/23
f 36/52/16 35/51/16 53/81/16
f 53/81/16 54/82/17 36/52/16
f 28/32/8 27/31/8 55/83/25
f 55/83/25 56/84/25 28/32/8
f 15/42/12 57/85/13 55/86/12
f 55/86/12 27/43/12 15/42/12
f 14/18/5 58/87/26 57/88/26
f 57/88/26 15/19/5 14/18/5
f 33/89/26 36/90/5 59/91/5
f 59/91/5 51/79/26 33/89/26
f 36/90/5 54/92/5 9/9/5
f 9/9/5 59/91/5 36/90/5
f 37/93/27 40/94/27 60/95/27
f 60/95/27 61/96/27 37/93/27
f 40/97/2 39/98/2 62/99/2
f 62/99/2 60/100/2 40/97/2
f 38/101/28 63/102/28 62/103/28
f 62/103/28 39/104/28 38/101/28
f 35/105/8 64/106/8 29/33/8
f 29/33/8 53/107/8 35/105/8
f 34/108/25 46/64/25 64/106/8
f 64/106/8 35/105/8 34/108/25
f 42/109/29 65/110/29 66/111/29
f 66/111/29 43/112/29 42/109/29
f 42/113/7 41/114/7 67/115/7
f 67/115/7 65/116/7 42/113/7
f 41/117/30 44/118/30 68/119/30
f 68/119/30 67/120/30 41/117/30
f 10/12/3 4/11/3 69/121/31
f 69/121/31 58/87/31 10/12/3
f 3/3/1 70/122/2 69/123/2
f 69/123/2 4/4/1 3/3/1
f 30/34/9 56/84/32 70/124/32
f 70/124/32 3/35/9 30/34/9
f 20/62/18 71/125/33 25/29/33
f 25/29/33 45/63/18 20/62/18
f 19/23/6 72/126/7 71/127/7
f 71/127/7 20/24/6 19/23/6
f 19/77/23 52/80/23 13/17/34
f 13/17/34 72/128/34 19/77/23
f 8/8/35 69/123/36 70/122/36
f 70/122/36 5/5/35 8/8/35
f 12/16/37 57/88/38 58/87/37
f 58/87/37 11/13/39 12/16/37
f 11/13/40 58/87/40 69/121/41
f 69/121/41 8/14/42 11/13/40
f 5/40/43 70/124/44 56/84/45
f 56/84/45 31/37/46 5/40/43
f 31/37/47 56/84/47 55/83/48
f 55/83/48 32/38/48 31/37/47
f 32/48/49 55/86/49 57/85/49
f 57/85/49 12/45/49 32/48/49
f 24/28/50 71/127/51 72/126/51
f 72/126/51 21/25/50 24/28/50
f 47/67/52 26/30/53 25/29/52
f 25/29/52 48/68/54 47/67/52
f 48/68/55 25/29/56 71/125/57
f 71/125/57 24/65/56 48/68/55
f 49/70/58 16/41/59 26/44/59
f 26/44/59 47/71/58 49/70/58
f 21/74/60 72/128/61 13/17/61
f 13/17/61 50/75/62 21/74/60
f 50/75/63 13/17/64 16/20/63
f 16/20/63 49/76/63 50/75/63
f 37/53/65 54/82/65 53/81/65
f 53/81/65 38/54/65 37/53/65
f 60/95/66 1/10/67 9/9/68
f 9/9/68 61/96/69 60/95/66
f 61/96/70 9/9/71 54/92/70
f 54/92/70 37/93/72 61/96/70
f 62/99/73 2/2/74 1/1/74
f 1/1/74 60/100/73 62/99/73
f 63/102/75 29/33/76 2/36/77
f 2/36/77 62/103/75 63/102/75
f 38/101/78 53/107/79 29/33/80
f 29/33/80 63/102/79 38/101/78
f 43/59/81 34/50/82 33/49/82
f 33/49/82 44/60/81 43/59/81
f 65/110/83 17/61/84 46/64/85
f 46/64/85 66/111/86 65/110/83
f 66/111/87 46/64/88 34/108/89
f 34/108/89 43/112/90 66/111/87
f 67/115/91 18/22/92 17/21/92
f 17/21/92 65/116/91 67/115/91
f 44/118/93 33/89/94 51/79/94
f 51/79/94 68/119/95 44/118/93
f 68/119/96 51/79/97 18/78/98
f 18/78/98 67/120/99 68/119/96
f 64/106/100 73/129/100 30/34/100
f 30/34/100 29/33/100 64/106/100
f 73/129/100 28/32/100 56/84/100
f 56/84/100 30/34/100 73/129/100
f 25/29/100 28/32/100 73/129/100
f 73/129/100 45/63/101 25/29/100
f 64/106/101 46/64/18 45/63/101
f 45/63/101 73/129/100 64/106/101
f 13/130/5 52/131/102 74/132/5
f 74/132/5 14/133/5 13/130/5
f 52/131/102 51/134/103 59/135/103
f 59/135/103 74/132/5 52/131/102
f 10/136/103 74/132/5 59/135/103
f 59/135/103 9/137/103 10/136/103
f 58/138/103 14/133/5 74/132/5
f 74/132/5 10/136/103 58/138/103

